<svg width="144" height="144" viewBox="0 0 144 144" fill="none" xmlns="http://www.w3.org/2000/svg">
<g filter="url(#filter0_di_405_11)">
<path fill-rule="evenodd" clip-rule="evenodd" d="M72.0354 12.2979C73.9957 12.2979 75.5849 13.887 75.5849 15.8473V20.8166C75.5849 22.7769 73.9957 24.3661 72.0354 24.3661C70.0751 24.3661 68.4859 22.7769 68.4859 20.8166V15.8473C68.4859 13.887 70.0751 12.2979 72.0354 12.2979ZM72.0354 119.634C73.9957 119.634 75.5849 121.223 75.5849 123.184V128.153C75.5849 130.113 73.9957 131.702 72.0354 131.702C70.0751 131.702 68.4859 130.113 68.4859 128.153V123.184C68.4859 121.223 70.0751 119.634 72.0354 119.634ZM15.8116 68.4506C13.8513 68.4506 12.2622 70.0398 12.2622 72.0001C12.2622 73.9604 13.8513 75.5496 15.8116 75.5496H20.8519C22.8122 75.5496 24.4014 73.9604 24.4014 72.0001C24.4014 70.0398 22.8122 68.4506 20.8519 68.4506H15.8116ZM119.74 72.0001C119.74 70.0398 121.33 68.4506 123.29 68.4506H128.188C130.149 68.4506 131.738 70.0398 131.738 72.0001C131.738 73.9604 130.149 75.5496 128.188 75.5496H123.29C121.33 75.5496 119.74 73.9604 119.74 72.0001ZM38.3406 110.715C39.7267 109.329 39.7267 107.081 38.3406 105.695C36.9544 104.309 34.707 104.309 33.3209 105.695L29.8424 109.173C28.4562 110.56 28.4562 112.807 29.8424 114.193C31.2285 115.579 33.4759 115.579 34.8621 114.193L38.3406 110.715ZM114.228 29.8071C115.615 31.1932 115.615 33.4406 114.228 34.8268L110.75 38.3053C109.364 39.6914 107.116 39.6914 105.73 38.3053C104.344 36.9191 104.344 34.6717 105.73 33.2856L109.209 29.8071C110.595 28.4209 112.842 28.4209 114.228 29.8071ZM34.8621 29.8071C33.4759 28.4209 31.2285 28.4209 29.8424 29.8071C28.4562 31.1932 28.4562 33.4406 29.8424 34.8268L33.3209 38.3053C34.707 39.6914 36.9544 39.6914 38.3406 38.3053C39.7267 36.9191 39.7267 34.6717 38.3406 33.2856L34.8621 29.8071ZM105.73 105.695C107.116 104.309 109.364 104.309 110.75 105.695L114.228 109.173C115.615 110.56 115.615 112.807 114.228 114.193C112.842 115.579 110.595 115.579 109.209 114.193L105.73 110.715C104.344 109.329 104.344 107.081 105.73 105.695ZM71.9999 111.459C93.7922 111.459 111.458 93.7924 111.458 72.0002C111.458 50.2079 93.7922 32.5418 71.9999 32.5418C50.2077 32.5418 32.5416 50.2079 32.5416 72.0002C32.5416 93.7924 50.2077 111.459 71.9999 111.459Z" fill="url(#paint0_linear_405_11)"/>
</g>
<defs>
<filter id="filter0_di_405_11" x="0.262207" y="0.297852" width="143.476" height="143.404" filterUnits="userSpaceOnUse" color-interpolation-filters="sRGB">
<feFlood flood-opacity="0" result="BackgroundImageFix"/>
<feColorMatrix in="SourceAlpha" type="matrix" values="0 0 0 0 0 0 0 0 0 0 0 0 0 0 0 0 0 0 127 0" result="hardAlpha"/>
<feOffset/>
<feGaussianBlur stdDeviation="6"/>
<feComposite in2="hardAlpha" operator="out"/>
<feColorMatrix type="matrix" values="0 0 0 0 1 0 0 0 0 0.9 0 0 0 0 0 0 0 0 0.4 0"/>
<feBlend mode="normal" in2="BackgroundImageFix" result="effect1_dropShadow_405_11"/>
<feBlend mode="normal" in="SourceGraphic" in2="effect1_dropShadow_405_11" result="shape"/>
<feColorMatrix in="SourceAlpha" type="matrix" values="0 0 0 0 0 0 0 0 0 0 0 0 0 0 0 0 0 0 127 0" result="hardAlpha"/>
<feOffset dy="0.6"/>
<feGaussianBlur stdDeviation="1.8"/>
<feComposite in2="hardAlpha" operator="arithmetic" k2="-1" k3="1"/>
<feColorMatrix type="matrix" values="0 0 0 0 1 0 0 0 0 1 0 0 0 0 1 0 0 0 1 0"/>
<feBlend mode="normal" in2="shape" result="effect2_innerShadow_405_11"/>
</filter>
<linearGradient id="paint0_linear_405_11" x1="72" y1="12.2979" x2="72" y2="131.702" gradientUnits="userSpaceOnUse">
<stop stop-color="#FCC308"/>
<stop offset="1" stop-color="#FF627C"/>
</linearGradient>
</defs>
</svg>
