<svg width="131" height="131" viewBox="0 0 131 131" fill="none" xmlns="http://www.w3.org/2000/svg">
<path d="M82.1863 21.1632C73.8779 21.1631 65.7335 23.4766 58.6658 27.8446C51.5981 32.2126 45.8864 38.4624 42.1707 45.8937V45.8937C39.069 52.0349 37.4514 58.8183 37.4481 65.6984C37.4658 66.7445 37.089 67.7591 36.3927 68.54C35.6964 69.321 34.7316 69.8113 33.6902 69.9132C33.1317 69.9552 32.5705 69.8813 32.0419 69.696C31.5133 69.5107 31.0287 69.2182 30.6186 68.8367C30.2084 68.4552 29.8816 67.993 29.6587 67.4791C29.4358 66.9652 29.3215 66.4108 29.3231 65.8507C29.3251 60.1739 30.2337 54.5339 32.0145 49.1437C32.1333 48.8 32.1577 48.4307 32.0851 48.0743C32.0125 47.718 31.8455 47.3877 31.6017 47.1179C31.3578 46.8481 31.046 46.6487 30.6988 46.5405C30.3516 46.4324 29.9817 46.4194 29.6277 46.5031C22.5837 48.2493 16.3268 52.303 11.8541 58.0181C7.38144 63.7332 4.95028 70.781 4.94806 78.0382C4.94806 95.9132 20.0809 110.538 37.9051 110.538H82.1356C93.9874 110.545 105.357 105.843 113.742 97.4675C122.127 89.0917 126.842 77.728 126.848 65.8761C126.855 54.0242 122.154 42.6551 113.778 34.2698C105.402 25.8845 94.0382 21.1699 82.1863 21.1632V21.1632Z" fill="white"/>
</svg>
