<svg width="130" height="130" viewBox="0 0 130 130" fill="none" xmlns="http://www.w3.org/2000/svg">
<g clip-path="url(#clip0_81_47)">
<path d="M21.3281 93.4375C21.8668 93.4375 22.3835 93.6515 22.7644 94.0324C23.1454 94.4134 23.3594 94.93 23.3594 95.4687V100.1L27.43 97.7681C27.8966 97.5159 28.4433 97.4563 28.9534 97.6019C29.4634 97.7475 29.8962 98.0868 30.1594 98.5473C30.4225 99.0078 30.4951 99.553 30.3616 100.066C30.2281 100.58 29.8991 101.02 29.445 101.294L25.4231 103.594L29.445 105.893C29.8991 106.167 30.2281 106.608 30.3616 107.121C30.4951 107.634 30.4225 108.18 30.1594 108.64C29.8962 109.101 29.4634 109.44 28.9534 109.586C28.4433 109.731 27.8966 109.672 27.43 109.419L23.3594 107.096V111.719C23.3594 112.257 23.1454 112.774 22.7644 113.155C22.3835 113.536 21.8668 113.75 21.3281 113.75C20.7894 113.75 20.2727 113.536 19.8918 113.155C19.5109 112.774 19.2969 112.257 19.2969 111.719V107.087L15.2262 109.419C14.7596 109.672 14.2129 109.731 13.7029 109.586C13.1928 109.44 12.76 109.101 12.4969 108.64C12.2337 108.18 12.1611 107.634 12.2946 107.121C12.4281 106.608 12.7571 106.167 13.2112 105.893L17.2331 103.594L13.2112 101.294C12.7571 101.02 12.4281 100.58 12.2946 100.066C12.1611 99.553 12.2337 99.0078 12.4969 98.5473C12.76 98.0868 13.1928 97.7475 13.7029 97.6019C14.2129 97.4563 14.7596 97.5159 15.2262 97.7681L19.2969 100.092V95.4687C19.2969 94.93 19.5109 94.4134 19.8918 94.0324C20.2727 93.6515 20.7894 93.4375 21.3281 93.4375V93.4375ZM43.6719 109.687C44.2106 109.687 44.7272 109.901 45.1082 110.282C45.4891 110.663 45.7031 111.18 45.7031 111.719V116.35L49.7656 114.018C50.2332 113.75 50.7883 113.678 51.3086 113.819C51.829 113.96 52.272 114.302 52.5403 114.77C52.8086 115.237 52.8801 115.792 52.7392 116.313C52.5982 116.833 52.2563 117.276 51.7887 117.544L47.7669 119.844L51.7887 122.143C52.2429 122.417 52.5719 122.858 52.7054 123.371C52.8389 123.884 52.7663 124.43 52.5031 124.89C52.24 125.351 51.8071 125.69 51.2971 125.836C50.7871 125.981 50.2403 125.922 49.7737 125.669L45.7031 123.346V127.969C45.7031 128.507 45.4891 129.024 45.1082 129.405C44.7272 129.786 44.2106 130 43.6719 130C43.1331 130 42.6165 129.786 42.2356 129.405C41.8546 129.024 41.6406 128.507 41.6406 127.969V123.337L37.57 125.669C37.1034 125.922 36.5566 125.981 36.0466 125.836C35.5366 125.69 35.1038 125.351 34.8406 124.89C34.5775 124.43 34.5049 123.884 34.6384 123.371C34.7718 122.858 35.1008 122.417 35.555 122.143L39.5769 119.844L35.555 117.544C35.1008 117.27 34.7718 116.83 34.6384 116.316C34.5049 115.803 34.5775 115.258 34.8406 114.797C35.1038 114.337 35.5366 113.997 36.0466 113.852C36.5566 113.706 37.1034 113.766 37.57 114.018L41.6406 116.342V111.719C41.6406 111.18 41.8546 110.663 42.2356 110.282C42.6165 109.901 43.1331 109.687 43.6719 109.687V109.687ZM88.3594 109.687C88.8981 109.687 89.4147 109.901 89.7957 110.282C90.1766 110.663 90.3906 111.18 90.3906 111.719V116.35L94.4531 114.018C94.6847 113.885 94.9401 113.799 95.2048 113.765C95.4696 113.731 95.7385 113.749 95.9961 113.819C96.2538 113.889 96.4952 114.009 96.7065 114.172C96.9178 114.335 97.095 114.538 97.2278 114.77C97.3606 115.001 97.4466 115.257 97.4807 115.521C97.5148 115.786 97.4965 116.055 97.4267 116.313C97.3569 116.57 97.237 116.812 97.074 117.023C96.9109 117.234 96.7078 117.412 96.4762 117.544L92.4544 119.844L96.4762 122.143C96.9304 122.417 97.2594 122.858 97.3929 123.371C97.5264 123.884 97.4538 124.43 97.1906 124.89C96.9275 125.351 96.4946 125.69 95.9846 125.836C95.4746 125.981 94.9279 125.922 94.4612 125.669L90.3906 123.346V127.969C90.3906 128.507 90.1766 129.024 89.7957 129.405C89.4147 129.786 88.8981 130 88.3594 130C87.8206 130 87.304 129.786 86.9231 129.405C86.5421 129.024 86.3281 128.507 86.3281 127.969V123.337L82.2575 125.669C81.7909 125.922 81.2441 125.981 80.7341 125.836C80.2241 125.69 79.7913 125.351 79.5281 124.89C79.265 124.43 79.1924 123.884 79.3259 123.371C79.4594 122.858 79.7883 122.417 80.2425 122.143L84.2644 119.844L80.2425 117.544C79.7883 117.27 79.4594 116.83 79.3259 116.316C79.1924 115.803 79.265 115.258 79.5281 114.797C79.7913 114.337 80.2241 113.997 80.7341 113.852C81.2441 113.706 81.7909 113.766 82.2575 114.018L86.3281 116.342V111.719C86.3281 111.18 86.5421 110.663 86.9231 110.282C87.304 109.901 87.8206 109.687 88.3594 109.687V109.687ZM66.0156 93.4375C66.5543 93.4375 67.071 93.6515 67.4519 94.0324C67.8329 94.4134 68.0469 94.93 68.0469 95.4687V100.1L72.1094 97.7681C72.577 97.4998 73.132 97.4283 73.6524 97.5692C74.1727 97.7102 74.6158 98.0521 74.8841 98.5197C75.1523 98.9873 75.2239 99.5423 75.0829 100.063C74.942 100.583 74.6001 101.026 74.1325 101.294L70.1106 103.594L74.1325 105.893C74.5866 106.167 74.9156 106.608 75.0491 107.121C75.1826 107.634 75.11 108.18 74.8469 108.64C74.5837 109.101 74.1509 109.44 73.6409 109.586C73.1308 109.731 72.5841 109.672 72.1175 109.419L68.0469 107.096V111.719C68.0469 112.257 67.8329 112.774 67.4519 113.155C67.071 113.536 66.5543 113.75 66.0156 113.75C65.4769 113.75 64.9602 113.536 64.5793 113.155C64.1984 112.774 63.9844 112.257 63.9844 111.719V107.087L59.9137 109.419C59.4471 109.672 58.9004 109.731 58.3904 109.586C57.8803 109.44 57.4475 109.101 57.1844 108.64C56.9212 108.18 56.8486 107.634 56.9821 107.121C57.1156 106.608 57.4446 106.167 57.8987 105.893L61.9206 103.594L57.8987 101.294C57.4446 101.02 57.1156 100.58 56.9821 100.066C56.8486 99.553 56.9212 99.0078 57.1844 98.5473C57.4475 98.0868 57.8803 97.7475 58.3904 97.6019C58.9004 97.4563 59.4471 97.5159 59.9137 97.7681L63.9844 100.092V95.4687C63.9844 94.93 64.1984 94.4134 64.5793 94.0324C64.9602 93.6515 65.4769 93.4375 66.0156 93.4375V93.4375ZM110.703 93.4375C111.242 93.4375 111.758 93.6515 112.139 94.0324C112.52 94.4134 112.734 94.93 112.734 95.4687V100.1L116.797 97.7681C117.264 97.4998 117.82 97.4283 118.34 97.5692C118.86 97.7102 119.303 98.0521 119.572 98.5197C119.84 98.9873 119.911 99.5423 119.77 100.063C119.629 100.583 119.288 101.026 118.82 101.294L114.798 103.594L118.82 105.893C119.274 106.167 119.603 106.608 119.737 107.121C119.87 107.634 119.798 108.18 119.534 108.64C119.271 109.101 118.838 109.44 118.328 109.586C117.818 109.731 117.272 109.672 116.805 109.419L112.734 107.096V111.719C112.734 112.257 112.52 112.774 112.139 113.155C111.758 113.536 111.242 113.75 110.703 113.75C110.164 113.75 109.648 113.536 109.267 113.155C108.886 112.774 108.672 112.257 108.672 111.719V107.087L104.601 109.419C104.369 109.559 104.112 109.651 103.844 109.69C103.576 109.729 103.303 109.714 103.041 109.646C102.779 109.578 102.533 109.458 102.318 109.293C102.103 109.129 101.923 108.923 101.788 108.688C101.654 108.453 101.568 108.193 101.535 107.924C101.503 107.655 101.524 107.383 101.599 107.122C101.673 106.862 101.799 106.619 101.968 106.408C102.138 106.197 102.348 106.022 102.586 105.893L106.608 103.594L102.586 101.294C102.132 101.02 101.803 100.58 101.67 100.066C101.536 99.553 101.609 99.0078 101.872 98.5473C102.135 98.0868 102.568 97.7475 103.078 97.6019C103.588 97.4563 104.135 97.5159 104.601 97.7681L108.672 100.092V95.4687C108.672 94.93 108.886 94.4134 109.267 94.0324C109.648 93.6515 110.164 93.4375 110.703 93.4375V93.4375ZM108.916 34.7506C107.228 26.245 102.864 18.5023 96.4616 12.6545C90.0589 6.80668 81.9534 3.16049 73.3301 2.24905C64.7068 1.33761 56.0181 3.20873 48.5344 7.58881C41.0506 11.9689 35.1644 18.6282 31.7362 26.5931C27.8918 26.1502 23.9974 26.4967 20.2915 27.6112C16.5856 28.7258 13.1462 30.585 10.1838 33.075C7.22147 35.5651 4.7985 38.6336 3.06328 42.0926C1.32806 45.5516 0.31709 49.3284 0.0922782 53.1917C-0.132534 57.0551 0.433539 60.9237 1.75584 64.5606C3.07814 68.1976 5.12884 71.5264 7.78239 74.3432C10.4359 77.16 13.6365 79.4056 17.1881 80.9425C20.7397 82.4794 24.5676 83.2752 28.4375 83.2812H105.625C111.809 83.2883 117.765 80.9446 122.285 76.7249C126.806 72.5053 129.554 66.7251 129.972 60.5552C130.39 54.3854 128.448 48.2871 124.538 43.4958C120.629 38.7045 115.044 35.5784 108.916 34.7506V34.7506Z" fill="white"/>
</g>
<defs>
<clipPath id="clip0_81_47">
<rect width="130" height="130" fill="white"/>
</clipPath>
</defs>
</svg>
