<svg width="131" height="131" viewBox="0 0 131 131" fill="none" xmlns="http://www.w3.org/2000/svg">
<path d="M68.5006 85.9595L60.4772 98.147H78.3522C78.9453 98.1318 79.5345 98.2466 80.0784 98.4835C80.6223 98.7204 81.1078 99.0735 81.5006 99.5181C82.109 100.178 82.4755 101.024 82.54 101.919C82.6046 102.814 82.3635 103.704 81.8561 104.444L68.5514 124.756C68.1741 125.313 67.6675 125.77 67.075 126.089C66.4825 126.407 65.8217 126.577 65.1491 126.584C64.2086 126.574 63.2981 126.252 62.5592 125.67C61.7915 125.002 61.2915 124.079 61.1515 123.071C61.0115 122.063 61.2409 121.038 61.7975 120.186L70.9381 106.272H53.0631C52.4715 106.277 51.8854 106.158 51.343 105.922C50.8005 105.685 50.3139 105.338 49.9147 104.901C49.3302 104.229 48.9796 103.386 48.9155 102.497C48.8514 101.609 49.0773 100.724 49.5592 99.9751L58.7506 85.9595H39.1491C24.5749 85.9595 12.4381 74.2798 12.3366 59.7056C12.3076 53.9639 14.1509 48.3691 17.5872 43.7691C21.0235 39.1691 25.8655 35.8144 31.3795 34.2134C31.7172 34.1176 32.0739 34.1109 32.4149 34.194C32.7558 34.2771 33.0695 34.4471 33.3252 34.6875C33.5809 34.9279 33.77 35.2304 33.874 35.5656C33.978 35.9008 33.9934 36.2572 33.9186 36.6001C33.0842 40.0937 32.6582 43.6723 32.6491 47.2642C32.6568 48.3063 33.0503 49.3086 33.7537 50.0776C34.457 50.8467 35.4204 51.3278 36.4577 51.4282C37.0121 51.463 37.5678 51.3836 38.0904 51.195C38.613 51.0065 39.0913 50.7127 39.4959 50.332C39.9004 49.9512 40.2226 49.4916 40.4424 48.9814C40.6623 48.4712 40.7752 47.9213 40.7741 47.3657C40.7731 42.6454 41.6336 37.9646 43.3131 33.5532V33.5532C45.8298 26.9872 50.0926 21.2334 55.641 16.9135C61.1895 12.5936 67.8127 9.87168 74.7954 9.04174C81.7781 8.2118 88.8549 9.30538 95.2614 12.2044C101.668 15.1034 107.161 19.6976 111.146 25.4908C115.132 31.284 117.459 38.0561 117.876 45.0756C118.294 52.095 116.785 59.0951 113.514 65.3197C110.243 71.5444 105.333 76.7569 99.3149 80.3945C93.297 84.0321 86.3997 85.9563 79.3678 85.9595H68.5006Z" fill="white"/>
</svg>
