<svg width="155" height="160" viewBox="0 0 115 70" fill="none" xmlns="http://www.w3.org/2000/svg">
<path d="M31.9444 40.4119C34.7011 40.4119 36.9358 37.9634 36.9358 34.9431C36.9358 31.9228 34.7011 29.4744 31.9444 29.4744C29.1878 29.4744 26.9531 31.9228 26.9531 34.9431C26.9531 37.9634 29.1878 40.4119 31.9444 40.4119Z" fill="#cecece"/>
<path d="M31.9446 47.4819C25.9453 47.6409 19.961 46.7548 14.2154 44.8569C11.5612 43.935 9.08578 42.4829 6.91408 40.5738C6.08539 39.9216 5.39527 39.0807 4.89109 38.1088C4.3869 37.1369 4.08059 36.0569 3.99316 34.9431C3.99316 31.3272 7.61886 27.7834 13.6923 25.4647C19.5915 23.4101 25.7552 22.4143 31.9446 22.5159C38.0513 22.4225 44.1324 23.4002 49.9572 25.4122C52.5134 26.305 54.9049 27.687 57.0209 29.4941C57.8355 30.1158 58.5152 30.9263 59.0121 31.8679C59.5089 32.8096 59.8107 33.8595 59.8959 34.9431C59.8959 38.7013 55.843 42.5097 49.3143 44.8766C43.68 46.7127 37.822 47.5913 31.9446 47.4819V47.4819ZM31.9446 25.1322C26.0231 25.0455 20.1268 25.9921 14.4769 27.9366C8.88665 30.0738 6.38101 32.9963 6.38101 34.9366C6.38101 36.9666 9.07433 40.1581 14.988 42.3741C20.4846 44.1806 26.2078 45.0216 31.9446 44.8656C37.5676 44.9758 43.1729 44.1422 48.5656 42.3938C54.705 40.1647 57.5001 36.9688 57.5001 34.9431C57.3994 34.248 57.1682 33.5833 56.8211 32.9911C56.474 32.3988 56.0186 31.8918 55.4836 31.5022C53.5904 29.8991 51.454 28.6743 49.1726 27.8841C43.6003 25.9673 37.7843 25.0383 31.9446 25.1322V25.1322Z" fill="#cecece"/>
<path d="M20.6042 62.2191C19.6728 62.2425 18.7524 61.9949 17.9368 61.5016C15.0778 59.6947 14.0875 54.4841 15.2874 47.5606C16.6104 40.9349 18.9028 34.5872 22.0756 28.7634C25.0519 22.9209 28.8622 17.6376 33.362 13.1141C35.3449 11.1337 37.6323 9.554 40.1183 8.44813C41.0174 7.98643 41.9983 7.7471 42.9913 7.7471C43.9843 7.7471 44.9651 7.98643 45.8643 8.44813C48.8371 10.325 49.8214 16.0738 48.4338 23.4522C47.07 29.7184 44.8372 35.7185 41.8133 41.2431C38.9418 47.0167 35.2515 52.2539 30.8803 56.7591C28.8255 58.817 26.4407 60.4405 23.8466 61.5475C22.808 61.9698 21.7118 62.1969 20.6042 62.2191V62.2191ZM24.144 30.0628C21.1175 35.6395 18.9205 41.7084 17.6354 48.0419C16.5313 54.4184 17.5914 58.2531 19.1328 59.2288C20.73 60.2416 24.6072 59.2813 29.3151 54.775C33.4878 50.459 37.0101 45.4458 39.7509 39.9219C42.6477 34.6402 44.7895 28.9038 46.1019 22.9119C47.4076 15.9666 46.2795 11.7141 44.6783 10.7034C44.0782 10.4515 43.4369 10.3387 42.7949 10.3722C42.153 10.4057 41.5244 10.5848 40.9488 10.8981C38.736 11.8986 36.7017 13.3189 34.9393 15.0938C30.6401 19.4267 27.0005 24.4846 24.158 30.0759L24.144 30.0628Z" fill="#cecece"/>
<path d="M43.2787 62.2475C40.5734 62.2475 37.1374 60.4538 33.5596 57.0828C28.981 52.5181 25.1063 47.1721 22.0856 41.2519C18.9525 35.5083 16.6783 29.2525 15.3493 22.7216C14.7729 19.8483 14.6661 16.8857 15.0338 13.9716C15.1189 12.8905 15.4193 11.8431 15.914 10.9031C16.4087 9.9631 17.0855 9.15346 17.8969 8.53126C20.8657 6.64783 25.9029 8.58376 31.044 13.5844C35.3177 18.0079 38.947 23.1234 41.8053 28.7525C44.9364 34.362 47.2344 40.4809 48.6134 46.8803C49.2146 49.8591 49.3074 52.934 48.887 55.9497C48.7869 57.0618 48.4686 58.1371 47.9537 59.1018C47.4389 60.0666 46.7397 60.8979 45.9042 61.5388C45.1019 62.026 44.1957 62.2706 43.2787 62.2475V62.2475ZM24.152 39.935C27.0498 45.5928 30.7511 50.7092 35.1169 55.0922C39.6071 59.325 43.1689 60.235 44.7002 59.2485C46.2975 58.2313 47.4754 54.0794 46.2615 47.3616C44.9316 41.2518 42.7274 35.4111 39.7309 30.0563C37.0033 24.6687 33.5391 19.7703 29.4588 15.5313C24.6192 10.8238 20.694 9.77158 19.0948 10.7866C18.5963 11.2304 18.1873 11.7826 17.8935 12.4084C17.5997 13.0341 17.4275 13.7198 17.3877 14.4222C17.0703 17.0211 17.1737 19.6611 17.6932 22.2206C18.9716 28.4663 21.1527 34.4479 24.154 39.9394L24.152 39.935Z" fill="#cecece"/>
<path d="M85.718 32.0833V26.25H99.0282V32.0833H85.718ZM85.718 20.4167V14.5833H107.014V20.4167H85.718ZM72.4078 61.25C68.7254 61.25 65.5868 59.8286 62.9922 56.9858C60.3958 54.1411 59.0977 50.7014 59.0977 46.6667C59.0977 44.3333 59.5635 42.1575 60.4952 40.1392C61.4269 38.1228 62.7358 36.4097 64.4217 35V17.5C64.4217 15.0694 65.1982 13.0035 66.751 11.3021C68.3039 9.60069 70.1895 8.75 72.4078 8.75C74.6262 8.75 76.5118 9.60069 78.0647 11.3021C79.6175 13.0035 80.394 15.0694 80.394 17.5V35C82.0799 36.4097 83.3887 38.1228 84.3205 40.1392C85.2522 42.1575 85.718 44.3333 85.718 46.6667C85.718 50.7014 84.4207 54.1411 81.8261 56.9858C79.2298 59.8286 76.0903 61.25 72.4078 61.25ZM64.4217 46.6667H80.394C80.394 45.2569 80.1171 43.9444 79.5634 42.7292C79.0079 41.5139 78.22 40.4931 77.1995 39.6667L75.0699 37.9167V17.5C75.0699 16.6736 74.8152 15.9804 74.3059 15.4204C73.7948 14.8624 73.1621 14.5833 72.4078 14.5833C71.6536 14.5833 71.0209 14.8624 70.5098 15.4204C70.0005 15.9804 69.7458 16.6736 69.7458 17.5V37.9167L67.6162 39.6667C66.5957 40.4931 65.8078 41.5139 65.2523 42.7292C64.6986 43.9444 64.4217 45.2569 64.4217 46.6667Z" fill="#cecece"/>
</svg>
