<svg width="130" height="130" viewBox="0 0 130 130" fill="none" xmlns="http://www.w3.org/2000/svg">
<path d="M99.5312 65C99.5312 71.8296 97.506 78.5059 93.7117 84.1845C89.9173 89.8632 84.5243 94.2891 78.2145 96.9027C71.9048 99.5163 64.9617 100.2 58.2633 98.8677C51.5649 97.5353 45.412 94.2466 40.5827 89.4173C35.7534 84.588 32.4647 78.4351 31.1323 71.7367C29.7999 65.0383 30.4837 58.0952 33.0973 51.7855C35.7109 45.4757 40.1368 40.0827 45.8155 36.2883C51.4941 32.494 58.1704 30.4688 65 30.4688C74.1541 30.4822 82.9295 34.1246 89.4024 40.5976C95.8754 47.0705 99.5178 55.8459 99.5312 65ZM65 22.3438C66.0774 22.3438 67.1108 21.9157 67.8726 21.1539C68.6345 20.392 69.0625 19.3587 69.0625 18.2812V8.125C69.0625 7.04756 68.6345 6.01425 67.8726 5.25238C67.1108 4.49051 66.0774 4.0625 65 4.0625C63.9226 4.0625 62.8892 4.49051 62.1274 5.25238C61.3655 6.01425 60.9375 7.04756 60.9375 8.125V18.2812C60.9375 19.3587 61.3655 20.392 62.1274 21.1539C62.8892 21.9157 63.9226 22.3438 65 22.3438ZM29.0977 34.8359C29.8656 35.5835 30.895 36.0018 31.9668 36.0018C33.0385 36.0018 34.068 35.5835 34.8359 34.8359C35.5957 34.0744 36.0223 33.0425 36.0223 31.9668C36.0223 30.8911 35.5957 29.8592 34.8359 29.0977L27.6758 21.8867C27.3115 21.4429 26.8584 21.0803 26.3455 20.8221C25.8327 20.564 25.2715 20.4161 24.698 20.3879C24.1246 20.3597 23.5515 20.452 23.0159 20.6586C22.4802 20.8652 21.9937 21.1817 21.5877 21.5877C21.1817 21.9937 20.8652 22.4802 20.6586 23.0159C20.452 23.5515 20.3597 24.1246 20.3879 24.698C20.4161 25.2715 20.564 25.8327 20.8221 26.3455C21.0803 26.8584 21.4429 27.3115 21.8867 27.6758L29.0977 34.8359ZM22.3438 65C22.3438 63.9226 21.9157 62.8892 21.1539 62.1274C20.392 61.3655 19.3587 60.9375 18.2812 60.9375H8.125C7.04756 60.9375 6.01425 61.3655 5.25238 62.1274C4.49051 62.8892 4.0625 63.9226 4.0625 65C4.0625 66.0774 4.49051 67.1108 5.25238 67.8726C6.01425 68.6345 7.04756 69.0625 8.125 69.0625H18.2812C19.3587 69.0625 20.392 68.6345 21.1539 67.8726C21.9157 67.1108 22.3438 66.0774 22.3438 65ZM29.0977 95.1641L21.8867 102.324C21.1239 103.094 20.6959 104.135 20.6959 105.219C20.6959 106.303 21.1239 107.343 21.8867 108.113C22.6721 108.85 23.7045 109.267 24.7812 109.281C25.86 109.277 26.896 108.859 27.6758 108.113L34.8359 100.902C35.5361 100.13 35.9124 99.1171 35.8867 98.0746C35.861 97.0321 35.4354 96.0393 34.6981 95.302C33.9607 94.5646 32.9679 94.139 31.9254 94.1133C30.8829 94.0876 29.8704 94.4638 29.0977 95.1641V95.1641ZM65 107.656C63.9226 107.656 62.8892 108.084 62.1274 108.846C61.3655 109.608 60.9375 110.641 60.9375 111.719V121.875C60.9375 122.952 61.3655 123.986 62.1274 124.748C62.8892 125.509 63.9226 125.938 65 125.938C66.0774 125.938 67.1108 125.509 67.8726 124.748C68.6345 123.986 69.0625 122.952 69.0625 121.875V111.719C69.0625 110.641 68.6345 109.608 67.8726 108.846C67.1108 108.084 66.0774 107.656 65 107.656ZM100.902 95.1641C100.13 94.4638 99.1171 94.0876 98.0746 94.1133C97.0321 94.139 96.0393 94.5646 95.302 95.302C94.5646 96.0393 94.139 97.0321 94.1133 98.0746C94.0876 99.1171 94.4638 100.13 95.1641 100.902L102.324 108.113C103.104 108.859 104.14 109.277 105.219 109.281C106.296 109.267 107.328 108.85 108.113 108.113C108.876 107.343 109.304 106.303 109.304 105.219C109.304 104.135 108.876 103.094 108.113 102.324L100.902 95.1641ZM121.875 60.9375H111.719C110.641 60.9375 109.608 61.3655 108.846 62.1274C108.084 62.8892 107.656 63.9226 107.656 65C107.656 66.0774 108.084 67.1108 108.846 67.8726C109.608 68.6345 110.641 69.0625 111.719 69.0625H121.875C122.952 69.0625 123.986 68.6345 124.748 67.8726C125.509 67.1108 125.938 66.0774 125.938 65C125.938 63.9226 125.509 62.8892 124.748 62.1274C123.986 61.3655 122.952 60.9375 121.875 60.9375ZM98.0586 36.0039C98.5865 36.0086 99.11 35.9076 99.5984 35.7071C100.087 35.5065 100.53 35.2103 100.902 34.8359L108.113 27.6758C108.761 26.8865 109.092 25.8844 109.042 24.8645C108.992 23.8446 108.564 22.8798 107.842 22.1577C107.12 21.4357 106.155 21.008 105.136 20.9579C104.116 20.9078 103.114 21.2389 102.324 21.8867L95.1641 29.0977C94.4043 29.8592 93.9777 30.8911 93.9777 31.9668C93.9777 33.0425 94.4043 34.0744 95.1641 34.8359C95.5423 35.2165 95.9939 35.5163 96.4914 35.7171C96.989 35.9178 97.5222 36.0154 98.0586 36.0039Z" fill="white"/>
</svg>
