<svg width="130" height="130" viewBox="0 0 130 130" fill="none" xmlns="http://www.w3.org/2000/svg">
<g clip-path="url(#clip0_81_43)">
<path d="M33.7837 97.7031C34.2902 97.872 34.7584 98.139 35.1616 98.4889C35.5648 98.8389 35.895 99.2649 36.1335 99.7425C36.3719 100.22 36.5139 100.74 36.5513 101.273C36.5886 101.805 36.5207 102.34 36.3512 102.846L32.2887 115.034C31.9189 116.017 31.1823 116.819 30.2338 117.271C29.2852 117.723 28.1984 117.79 27.2016 117.458C26.2047 117.125 25.3754 116.42 24.8878 115.489C24.4001 114.558 24.292 113.475 24.5862 112.466L28.6487 100.279C28.9882 99.2563 29.7199 98.4106 30.6829 97.9276C31.6458 97.4445 32.7612 97.3638 33.7837 97.7031ZM82.5337 97.7031C83.0402 97.872 83.5084 98.139 83.9116 98.4889C84.3148 98.8389 84.645 99.2649 84.8835 99.7425C85.1219 100.22 85.2639 100.74 85.3013 101.273C85.3386 101.805 85.2707 102.34 85.1012 102.846L81.0387 115.034C80.6689 116.017 79.9323 116.819 78.9838 117.271C78.0352 117.723 76.9484 117.79 75.9516 117.458C74.9547 117.125 74.1254 116.42 73.6378 115.489C73.1501 114.558 73.042 113.475 73.3362 112.466L77.3987 100.279C77.7382 99.2563 78.4699 98.4106 79.4329 97.9276C80.3958 97.4445 81.5112 97.3638 82.5337 97.7031ZM54.0962 109.891C54.6027 110.059 55.0709 110.327 55.4741 110.676C55.8773 111.026 56.2075 111.452 56.446 111.93C56.6844 112.408 56.8264 112.928 56.8638 113.46C56.9011 113.993 56.8332 114.527 56.6637 115.034L52.6012 127.221C52.2314 128.205 51.4948 129.007 50.5463 129.459C49.5977 129.911 48.5109 129.978 47.5141 129.645C46.5172 129.313 45.6879 128.607 45.2003 127.677C44.7126 126.746 44.6045 125.662 44.8987 124.654L48.9612 112.466C49.3007 111.444 50.0324 110.598 50.9954 110.115C51.9583 109.632 53.0737 109.551 54.0962 109.891ZM102.846 109.891C103.353 110.059 103.821 110.327 104.224 110.676C104.627 111.026 104.958 111.452 105.196 111.93C105.434 112.408 105.576 112.928 105.614 113.46C105.651 113.993 105.583 114.527 105.414 115.034L101.351 127.221C101.198 127.746 100.941 128.234 100.595 128.657C100.249 129.08 99.8207 129.429 99.3367 129.682C98.8526 129.936 98.3224 130.089 97.7777 130.133C97.233 130.177 96.685 130.111 96.1666 129.938C95.6481 129.765 95.1699 129.489 94.7605 129.127C94.3511 128.765 94.0189 128.325 93.7838 127.831C93.5487 127.338 93.4156 126.802 93.3924 126.256C93.3692 125.71 93.4564 125.165 93.6487 124.654L97.7112 112.466C98.0507 111.444 98.7824 110.598 99.7454 110.115C100.708 109.632 101.824 109.551 102.846 109.891ZM108.916 40.8444C107.228 32.3388 102.864 24.5961 96.4616 18.7482C90.0589 12.9004 81.9534 9.25424 73.3301 8.3428C64.7068 7.43136 56.0181 9.30248 48.5344 13.6826C41.0506 18.0626 35.1644 24.722 31.7362 32.6869C27.8918 32.244 23.9974 32.5904 20.2915 33.705C16.5856 34.8195 13.1462 36.6787 10.1838 39.1688C7.22147 41.6588 4.7985 44.7273 3.06328 48.1863C1.32806 51.6454 0.31709 55.4222 0.0922782 59.2855C-0.132534 63.1488 0.433539 67.0174 1.75584 70.6544C3.07814 74.2913 5.12884 77.6201 7.78239 80.4369C10.4359 83.2538 13.6365 85.4994 17.1881 87.0363C20.7397 88.5731 24.5676 89.369 28.4375 89.375H105.625C111.809 89.3821 117.765 87.0384 122.285 82.8187C126.806 78.599 129.554 72.8188 129.972 66.649C130.39 60.4791 128.448 54.3809 124.538 49.5896C120.629 44.7983 115.044 41.6721 108.916 40.8444V40.8444Z" fill="white"/>
</g>
<defs>
<clipPath id="clip0_81_43">
<rect width="130" height="130" fill="white"/>
</clipPath>
</defs>
</svg>
