<svg width="131" height="131" viewBox="0 0 131 131" fill="none" xmlns="http://www.w3.org/2000/svg">
<path d="M85.4616 114.397C85.4616 115.474 85.0336 116.508 84.2717 117.27C83.5098 118.031 82.4765 118.459 81.3991 118.459H52.9616C51.8841 118.459 50.8508 118.031 50.089 117.27C49.3271 116.508 48.8991 115.474 48.8991 114.397C48.8991 113.319 49.3271 112.286 50.089 111.524C50.8508 110.762 51.8841 110.334 52.9616 110.334H81.3991C82.4765 110.334 83.5098 110.762 84.2717 111.524C85.0336 112.286 85.4616 113.319 85.4616 114.397ZM65.1491 98.1469C65.1491 97.0695 64.7211 96.0362 63.9592 95.2743C63.1973 94.5124 62.164 94.0844 61.0866 94.0844H36.7116C35.6341 94.0844 34.6008 94.5124 33.839 95.2743C33.0771 96.0362 32.6491 97.0695 32.6491 98.1469C32.6491 99.2244 33.0771 100.258 33.839 101.02C34.6008 101.781 35.6341 102.209 36.7116 102.209H61.0866C62.164 102.209 63.1973 101.781 63.9592 101.02C64.7211 100.258 65.1491 99.2244 65.1491 98.1469ZM93.5866 94.0844H81.3991C80.3216 94.0844 79.2883 94.5124 78.5265 95.2743C77.7646 96.0362 77.3366 97.0695 77.3366 98.1469C77.3366 99.2244 77.7646 100.258 78.5265 101.02C79.2883 101.781 80.3216 102.209 81.3991 102.209H93.5866C94.664 102.209 95.6973 101.781 96.4592 101.02C97.2211 100.258 97.6491 99.2244 97.6491 98.1469C97.6491 97.0695 97.2211 96.0362 96.4592 95.2743C95.6973 94.5124 94.664 94.0844 93.5866 94.0844ZM81.0436 8.82272C72.9569 8.4742 64.9648 10.6737 58.1952 15.1109C51.4255 19.5481 46.22 25.9989 43.3131 33.5532V33.5532C41.6517 37.9167 40.7916 42.5443 40.7741 47.2133C40.7802 48.2563 40.3994 49.2646 39.7053 50.0431C39.0112 50.8216 38.0531 51.3151 37.0163 51.4282C36.4577 51.4702 35.8965 51.3963 35.3679 51.211C34.8393 51.0257 34.3547 50.7331 33.9446 50.3516C33.5345 49.9701 33.2077 49.5079 32.9847 48.9941C32.7618 48.4802 32.6475 47.9258 32.6491 47.3657C32.6389 43.756 33.0652 40.1582 33.9186 36.6508C34.0042 36.3044 33.997 35.9416 33.8977 35.5989C33.7985 35.2562 33.6107 34.9456 33.3533 34.6985C33.0959 34.4514 32.778 34.2765 32.4315 34.1913C32.085 34.1061 31.7222 34.1137 31.3795 34.2133C25.8655 35.8143 21.0235 39.169 17.5872 43.769C14.1509 48.3691 12.3076 53.9638 12.3366 59.7055C12.4381 74.2798 24.5749 85.9594 39.1491 85.9594H79.3678C89.4091 85.8858 99.0263 81.9014 106.178 74.8522C113.329 67.803 117.451 58.2441 117.669 48.205C117.888 38.1658 114.184 28.4369 107.346 21.0838C100.507 13.7307 91.0722 9.33238 81.0436 8.82272V8.82272Z" fill="white"/>
</svg>
