<svg width="130" height="130" viewBox="0 0 130 130" fill="none" xmlns="http://www.w3.org/2000/svg">
<g clip-path="url(#clip0_81_45)">
<path d="M24.375 81.25C10.918 81.25 0 70.332 0 56.875C0 46.084 7.00781 36.918 16.7324 33.7188C16.4277 32.0176 16.25 30.2402 16.25 28.4375C16.25 12.7207 28.9707 0 44.6875 0C55.6309 0 65.127 6.16992 69.875 15.2344C73.6074 10.8926 79.1426 8.125 85.3125 8.125C96.5352 8.125 105.625 17.2148 105.625 28.4375C105.625 29.834 105.473 31.1797 105.219 32.5H105.625C119.082 32.5 130 43.418 130 56.875C130 70.332 119.082 81.25 105.625 81.25H24.375ZM22.6484 94.4531C22.9785 93.8184 23.6387 93.4375 24.375 93.4375C25.1113 93.4375 25.7461 93.8184 26.1016 94.4531L35.0137 110.855C36.0547 112.76 36.5879 114.867 36.5879 117.025V117.787C36.5879 124.516 31.1289 129.975 24.4004 129.975C17.6719 129.975 12.2129 124.516 12.2129 117.787V117.025C12.2129 114.867 12.7461 112.734 13.7871 110.855L22.6484 94.4531ZM63.2734 94.4531C63.6035 93.8184 64.2637 93.4375 65 93.4375C65.7363 93.4375 66.3711 93.8184 66.7266 94.4531L75.6387 110.855C76.6797 112.76 77.2129 114.867 77.2129 117.025V117.787C77.2129 124.516 71.7539 129.975 65.0254 129.975C58.2969 129.975 52.8379 124.516 52.8379 117.787V117.025C52.8379 114.867 53.3711 112.734 54.4121 110.855L63.2734 94.4531V94.4531ZM94.9863 110.855L103.898 94.4531C104.229 93.8184 104.889 93.4375 105.625 93.4375C106.361 93.4375 106.996 93.8184 107.352 94.4531L116.264 110.855C117.305 112.76 117.838 114.867 117.838 117.025V117.787C117.838 124.516 112.379 129.975 105.65 129.975C98.9219 129.975 93.4629 124.516 93.4629 117.787V117.025C93.4629 114.867 93.9961 112.734 95.0371 110.855H94.9863Z" fill="white"/>
</g>
<defs>
<clipPath id="clip0_81_45">
<rect width="130" height="130" fill="white"/>
</clipPath>
</defs>
</svg>
